<svg width="32" height="32" viewBox="0 0 32 32" fill="none" xmlns="http://www.w3.org/2000/svg">
<path fill-rule="evenodd" clip-rule="evenodd" d="M16 19C18.8995 19 21.25 16.6495 21.25 13.75C21.25 10.8505 18.8995 8.5 16 8.5C13.1005 8.5 10.75 10.8505 10.75 13.75C10.75 16.6495 13.1005 19 16 19Z" stroke="#0123C6" stroke-width="1.5" stroke-linecap="round" stroke-linejoin="round"/>
<path d="M22.913 24.876C21.0835 23.0351 18.5954 21.9999 16 21.9999C13.4046 21.9999 10.9165 23.0351 9.087 24.876" stroke="#0123C6" stroke-width="1.5" stroke-linecap="round" stroke-linejoin="round"/>
<path fill-rule="evenodd" clip-rule="evenodd" d="M16 27.25C22.2132 27.25 27.25 22.2132 27.25 16C27.25 9.7868 22.2132 4.75 16 4.75C9.7868 4.75 4.75 9.7868 4.75 16C4.75 22.2132 9.7868 27.25 16 27.25Z" stroke="#0123C6" stroke-width="1.5" stroke-linecap="round" stroke-linejoin="round"/>
</svg>
